<?xml version="1.0" encoding="UTF-8" standalone="no"?>
<!-- Created with Inkscape (http://www.inkscape.org/) -->

<svg
   sodipodi:docname="uys_design_logo.svg"
   xml:space="preserve"
   inkscape:version="1.2 (1:1.2.1+202207142221+cd75a1ee6d)"
   id="svg5"
   version="1.1"
   viewBox="0 0 1000 1000"
   height="1000"
   width="1000"
   inkscape:export-filename="../../Projects/uys_design/themes/bootstrap/static/img/logo_square_red.png"
   inkscape:export-xdpi="12.288"
   inkscape:export-ydpi="12.288"
   xmlns:inkscape="http://www.inkscape.org/namespaces/inkscape"
   xmlns:sodipodi="http://sodipodi.sourceforge.net/DTD/sodipodi-0.dtd"
   xmlns="http://www.w3.org/2000/svg"
   xmlns:svg="http://www.w3.org/2000/svg"><sodipodi:namedview
     id="namedview7"
     pagecolor="#ffffff"
     bordercolor="#000000"
     borderopacity="0.25"
     inkscape:showpageshadow="2"
     inkscape:pageopacity="0.0"
     inkscape:pagecheckerboard="0"
     inkscape:deskcolor="#d1d1d1"
     inkscape:document-units="px"
     showgrid="true"
     inkscape:zoom="0.22950001"
     inkscape:cx="270.1525"
     inkscape:cy="795.20695"
     inkscape:window-width="1366"
     inkscape:window-height="704"
     inkscape:window-x="0"
     inkscape:window-y="0"
     inkscape:window-maximized="1"
     inkscape:current-layer="layer1"
     showguides="false" /><defs
     id="defs2"><inkscape:path-effect
       effect="offset"
       id="path-effect370"
       is_visible="true"
       lpeversion="1.2"
       linejoin_type="miter"
       unit="mm"
       offset="0.9"
       miter_limit="4"
       attempt_force_join="false"
       update_on_knot_move="true" /><inkscape:path-effect
       effect="fillet_chamfer"
       id="path-effect368"
       is_visible="true"
       lpeversion="1"
       nodesatellites_param="F,0,0,1,0,0,0,1 @ F,0,0,1,0,0,0,1 @ F,0,0,1,0,0,0,1 @ F,0,0,1,0,0,0,1 @ F,0,0,1,0,0,0,1 @ F,0,0,1,0,0,0,1 @ F,0,0,1,0,0,0,1 @ F,0,0,1,0,0,0,1 @ F,0,0,1,0,0,0,1 @ F,0,0,1,0,0,0,1 @ F,0,0,1,0,0,0,1 @ F,0,0,1,0,0,0,1 @ F,0,0,1,0,0,0,1 @ F,0,0,1,0,0,0,1"
       unit="px"
       method="auto"
       mode="F"
       radius="0"
       chamfer_steps="1"
       flexible="false"
       use_knot_distance="true"
       apply_no_radius="true"
       apply_with_radius="true"
       only_selected="false"
       hide_knots="false" /><inkscape:path-effect
       effect="mirror_symmetry"
       start_point="541.91879,487.49968"
       end_point="541.91879,741.49883"
       center_point="541.91879,614.49925"
       id="path-effect7181"
       is_visible="true"
       lpeversion="1.2"
       lpesatellites=""
       mode="vertical"
       discard_orig_path="false"
       fuse_paths="false"
       oposite_fuse="false"
       split_items="false"
       split_open="false"
       link_styles="false" /><inkscape:path-effect
       effect="fillet_chamfer"
       id="path-effect6431"
       is_visible="true"
       lpeversion="1"
       nodesatellites_param="F,0,0,1,0,80.911312,0,1 @ F,0,0,1,0,0,0,1 @ F,0,0,1,0,0,0,1 @ F,0,0,1,0,0,0,1 @ F,0,0,1,0,0,0,1 @ F,0,0,1,0,0,0,1 @ F,0,0,1,0,0,0,1 @ F,0,0,1,0,0,0,1 @ F,0,0,1,0,0,0,1 @ F,0,0,1,0,0,0,1 @ F,0,0,1,0,0,0,1 @ F,0,0,1,0,0,0,1 @ F,0,0,1,0,83.684523,0,1 @ F,0,0,1,0,0,0,1 @ F,0,0,1,0,0,0,1 @ F,0,0,1,0,0,0,1 @ F,0,0,1,0,0,0,1 @ F,0,0,1,0,0,0,1 @ F,0,0,1,0,0,0,1 @ F,0,0,1,0,0,0,1 @ F,0,0,1,0,0,0,1 @ F,0,0,1,0,0,0,1"
       unit="px"
       method="auto"
       mode="F"
       radius="0"
       chamfer_steps="1"
       flexible="false"
       use_knot_distance="true"
       apply_no_radius="true"
       apply_with_radius="true"
       only_selected="false"
       hide_knots="false" /><inkscape:path-effect
       effect="fillet_chamfer"
       id="path-effect6423"
       is_visible="true"
       lpeversion="1"
       nodesatellites_param="F,0,0,1,0,0,0,1 @ F,0,0,1,0,0,0,1 @ F,0,0,1,0,0,0,1"
       unit="px"
       method="auto"
       mode="F"
       radius="0"
       chamfer_steps="1"
       flexible="false"
       use_knot_distance="true"
       apply_no_radius="true"
       apply_with_radius="true"
       only_selected="false"
       hide_knots="false" /><mask
       maskUnits="userSpaceOnUse"
       id="mask281"><path
         id="path283"
         style="fill:#ffffff;stroke-width:5;stroke-linecap:round;stroke-linejoin:round"
         d="m 553.07056,412.22427 h 281.25 v 358.78778 h -281.25 z" /></mask><symbol
       id="x"
       overflow="visible"><path
         d="m0.046875 0h-0.015625-0.03125v-0.03125-0.015625c0.0078125-0.0078125 0.019531-0.015625 0.03125-0.015625v0.015625h0.015625-0.015625l-0.015625 0.015625v0.015625h0.015625 0.015625z"
         id="path7403" /></symbol><symbol
       id="c"
       overflow="visible"><path
         d="m0.03125-0.03125h-0.015625v0.015625 0.015625h-0.015625v-0.046875h0.015625v0.015625l0.015625-0.015625z"
         id="path7406" /></symbol><symbol
       id="a"
       overflow="visible"><path
         d="m0.046875-0.015625h-0.03125 0.015625 0.015625v0.015625h-0.015625-0.03125v-0.015625-0.015625c0.0078125-0.0078125 0.019531-0.015625 0.03125-0.015625v0.015625c0.0078125 0 0.015625 0.0078125 0.015625 0.015625zm-0.015625-0.015625h-0.015625z"
         id="path7409" /></symbol><symbol
       id="b"
       overflow="visible"><path
         d="m0.03125-0.015625h-0.015625 0.015625zm0.015625 0v0.015625h-0.015625-0.015625-0.015625v-0.015625l0.015625-0.015625h0.015625-0.015625-0.015625v-0.015625h0.015625c0.0078125 0 0.015625 0.0078125 0.015625 0.015625 0.0078125 0 0.015625 0.0078125 0.015625 0.015625z"
         id="path7412" /></symbol><symbol
       id="e"
       overflow="visible"><path
         d="m0.015625-0.046875h0.015625v0.015625h-0.015625v0.015625h0.015625v0.015625h-0.015625-0.015625v-0.015625-0.03125z"
         id="path7415" /></symbol><symbol
       id="i"
       overflow="visible"><path
         d="m0.03125-0.03125v-0.03125h0.015625v0.0625h-0.015625-0.015625-0.015625v-0.015625-0.015625l0.015625-0.015625c0.0078125 0 0.015625 0.0078125 0.015625 0.015625zm0 0.015625v-0.015625h-0.015625v0.015625h0.015625z"
         id="path7418" /></symbol><symbol
       id="m"
       overflow="visible"><path
         d="m0.03125-0.015625v-0.015625h-0.015625v0.015625h0.015625zm-0.015625-0.015625 0.015625-0.015625c0.0078125 0 0.015625 0.0078125 0.015625 0.015625v0.015625 0.015625h-0.015625-0.015625-0.015625v-0.0625h0.015625z"
         id="path7421" /></symbol><symbol
       id="h"
       overflow="visible"><path
         d="m0-0.046875h0.015625l0.015625 0.03125v-0.03125h0.015625l-0.015625 0.046875c0 0.0078125-0.0078125 0.015625-0.015625 0.015625h-0.015625v-0.015625h0.015625z"
         id="path7424" /></symbol><symbol
       id="l"
       overflow="visible"><path
         d="m0.03125-0.046875-0.015625 0.015625v0.015625h0.015625c0.0078125 0 0.015625-0.0039062 0.015625-0.015625h-0.015625v-0.015625zm0-0.015625c0.0078125 0 0.015625 0.0078125 0.015625 0.015625 0.0078125 0 0.015625 0.0078125 0.015625 0.015625 0 0.011719-0.0078125 0.023438-0.015625 0.03125h-0.015625-0.03125v-0.03125-0.015625c0.0078125-0.0078125 0.019531-0.015625 0.03125-0.015625z"
         id="path7427" /></symbol><symbol
       id="w"
       overflow="visible"><path
         d="m0-0.0625h0.015625v0.0625h-0.015625z"
         id="path7430" /></symbol><symbol
       id="k"
       overflow="visible"><path
         d="m0-0.0625h0.015625v0.03125l0.015625-0.015625h0.015625l-0.015625 0.03125 0.015625 0.015625h-0.015625l-0.015625-0.015625v0.015625h-0.015625z"
         id="path7433" /></symbol><symbol
       id="g"
       overflow="visible"><path
         d="m0.03125-0.046875v0.015625h-0.015625 0.015625v0.015625h0.015625c0 0.011719-0.0078125 0.015625-0.015625 0.015625h-0.015625-0.015625v-0.015625h0.015625 0.015625-0.015625-0.015625v-0.015625l0.015625-0.015625h0.015625z"
         id="path7436" /></symbol><symbol
       id="f"
       overflow="visible"><path
         d="m0.046875-0.03125v0.03125h-0.015625v-0.015625-0.015625h-0.015625v0.015625 0.015625h-0.015625v-0.046875h0.015625v0.015625l0.015625-0.015625c0.0078125 0 0.015625 0.0078125 0.015625 0.015625z"
         id="path7439" /></symbol><symbol
       id="j"
       overflow="visible"><path
         d="m0-0.046875h0.03125 0.015625v0.015625 0.015625h-0.015625-0.015625v0.015625h-0.015625zm0.015625 0v0.015625h0.015625v-0.015625z"
         id="path7442" /></symbol><symbol
       id="d"
       overflow="visible"><path
         d="m0.03125-0.03125h-0.015625v0.015625h0.015625v-0.015625zm0-0.015625v0.015625c0.0078125 0 0.015625 0.0078125 0.015625 0.015625l-0.015625 0.015625h-0.03125v-0.015625-0.015625c0.0078125-0.0078125 0.019531-0.015625 0.03125-0.015625z"
         id="path7445" /></symbol><symbol
       id="v"
       overflow="visible"><path
         d="m0-0.046875h0.015625l0.015625 0.03125v-0.03125h0.015625l-0.015625 0.046875h-0.015625z"
         id="path7448" /></symbol><symbol
       id="u"
       overflow="visible"><path
         d="m0-0.046875h0.015625v0.046875h-0.015625zm0-0.015625h0.015625v0.015625h-0.015625z"
         id="path7451" /></symbol><symbol
       id="t"
       overflow="visible"><path
         d="m0.03125-0.0625v0.015625h-0.015625 0.015625v0.015625h-0.015625v0.03125-0.03125h-0.015625v-0.015625h0.015625v-0.015625z"
         id="path7454" /></symbol><symbol
       id="s"
       overflow="visible"><path
         d="m0.046875-0.03125c0-0.0078125 0.0039062-0.015625 0.015625-0.015625v0.015625h0.015625v0.03125h-0.015625v-0.015625-0.015625h-0.015625v0.015625 0.015625h-0.015625v-0.015625-0.015625h-0.015625v0.015625 0.015625h-0.015625v-0.046875h0.015625v0.015625l0.015625-0.015625v0.015625h0.015625z"
         id="path7457" /></symbol><symbol
       id="r"
       overflow="visible"><path
         d="m0.046875-0.03125v0.03125h-0.015625v-0.015625-0.015625h-0.015625v0.015625 0.015625h-0.015625v-0.0625h0.015625v0.03125l0.015625-0.015625c0.0078125 0 0.015625 0.0078125 0.015625 0.015625z"
         id="path7460" /></symbol><symbol
       id="q"
       overflow="visible"><path
         d="m0-0.046875h0.015625l0.03125 0.03125v-0.03125h0.015625v0.046875h-0.015625l-0.03125-0.03125v0.03125h-0.015625z"
         id="path7463" /></symbol><symbol
       id="p"
       overflow="visible"><path
         d="m0-0.015625v-0.03125h0.015625v0.015625 0.015625h0.015625v-0.03125h0.015625v0.046875h-0.015625-0.015625-0.015625v-0.015625z"
         id="path7466" /></symbol><symbol
       id="o"
       overflow="visible"><path
         d="m0-0.046875h0.015625v0.046875c0 0.0078125-0.0078125 0.015625-0.015625 0.015625zm0-0.015625h0.015625v0.015625h-0.015625z"
         id="path7469" /></symbol><symbol
       id="n"
       overflow="visible"><path
         d="m0.046875-0.046875v0.015625h-0.015625-0.015625v0.015625h0.015625 0.015625v0.015625h-0.015625-0.03125v-0.015625-0.015625c0.0078125-0.0078125 0.019531-0.015625 0.03125-0.015625h0.015625z"
         id="path7472" /></symbol></defs><g
     inkscape:label="Layer 1"
     inkscape:groupmode="layer"
     id="layer1"><g
       id="g552"
       transform="translate(-135.74782,-5.0067383)"
       style="fill:#ffffff"
       inkscape:export-filename="../png/logo_wide.png"
       inkscape:export-xdpi="29.997995"
       inkscape:export-ydpi="29.997995"><path
         d="m 1364.6856,184.52894 q -23.4998,0 -36.8816,-13.21863 -13.2187,-13.21863 -13.2187,-38.18716 V 68.661913 h 21.2151 v 63.645267 q 0,17.62485 7.5069,25.6213 7.6701,7.99646 21.5415,7.99646 13.8714,0 21.3783,-7.99646 7.5068,-7.99645 7.5068,-25.6213 V 68.661913 h 20.8888 v 64.461237 q 0,24.96853 -13.3819,38.18716 -13.2186,13.21863 -36.5552,13.21863 z"
         style="font-weight:600;font-size:163.193px;font-family:Montserrat;-inkscape-font-specification:'Montserrat Semi-Bold';text-align:justify;letter-spacing:0px;fill:#ffffff;stroke-width:0.339985;stroke-linecap:square"
         id="path331" /><path
         d="m 1447.5459,215.6988 q -6.3645,0 -12.7291,-2.1215 -6.3645,-2.12151 -10.6075,-5.87495 l 8.1596,-15.01376 q 3.1007,2.77428 7.0173,4.40621 3.9167,1.63193 7.9965,1.63193 5.5486,0 8.9756,-2.77428 3.4271,-2.77428 6.3645,-9.302 l 5.059,-11.42351 1.6319,-2.44789 32.965,-77.0271 h 19.5832 l -40.7983,94.16236 q -4.0798,9.79158 -9.1388,15.50334 -4.8958,5.71175 -11.0971,7.99645 -6.0381,2.2847 -13.3818,2.2847 z m 17.9512,-29.70112 -39.3295,-90.24573 h 21.2151 l 31.9858,75.23197 z"
         style="font-weight:600;font-size:163.193px;font-family:Montserrat;-inkscape-font-specification:'Montserrat Semi-Bold';text-align:justify;letter-spacing:0px;fill:#ffffff;stroke-width:0.339985;stroke-linecap:square"
         id="path333" /><path
         d="m 1560.475,184.03936 q -10.9339,0 -21.0519,-2.77428 -9.9548,-2.93747 -15.8297,-7.0173 l 7.8332,-15.50333 q 5.875,3.75344 14.0346,6.20133 8.1597,2.4479 16.3193,2.4479 9.6284,0 13.8714,-2.61109 4.4062,-2.61109 4.4062,-7.0173 0,-3.59024 -2.9374,-5.38537 -2.9375,-1.95831 -7.6701,-2.93747 -4.7326,-0.97916 -10.6075,-1.79512 -5.7118,-0.81597 -11.5867,-2.12151 -5.7118,-1.46874 -10.4444,-4.07983 -4.7326,-2.77428 -7.6701,-7.34368 -2.9374,-4.56941 -2.9374,-12.07629 0,-8.32284 4.7326,-14.36098 4.7326,-6.20133 13.2186,-9.465195 8.6492,-3.427053 20.3991,-3.427053 8.8124,0 17.788,1.958316 8.9757,1.958316 14.8506,5.548562 l -7.8333,15.50333 q -6.2013,-3.75343 -12.5658,-5.05898 -6.2013,-1.46873 -12.4027,-1.46873 -9.302,0 -13.8714,2.77428 -4.4062,2.77428 -4.4062,7.01729 0,3.91664 2.9375,5.87496 2.9375,1.95831 7.67,3.10066 4.7326,1.14235 10.4444,1.95832 5.8749,0.65277 11.5867,2.12151 5.7118,1.46873 10.4444,4.07982 4.8957,2.4479 7.8332,7.0173 2.9375,4.56941 2.9375,11.91309 0,8.15965 -4.8958,14.19779 -4.7326,6.03814 -13.545,9.46519 -8.8124,3.26386 -21.0519,3.26386 z"
         style="font-weight:600;font-size:163.193px;font-family:Montserrat;-inkscape-font-specification:'Montserrat Semi-Bold';text-align:justify;letter-spacing:0px;fill:#ffffff;stroke-width:0.339985;stroke-linecap:square"
         id="path335" /><path
         d="M 1624.1201,182.89701 V 68.661913 h 45.2045 q 18.1144,0 31.8226,7.343685 13.7082,7.343685 21.2151,20.235931 7.6701,12.892251 7.6701,29.537941 0,16.64568 -7.6701,29.53793 -7.5069,12.89224 -21.2151,20.23593 -13.7082,7.34368 -31.8226,7.34368 z m 8.3229,-7.50688 h 36.2288 q 16.1561,0 28.0692,-6.36452 11.9131,-6.36453 18.4408,-17.46165 6.5278,-11.26032 6.5278,-25.78449 0,-14.52418 -6.5278,-25.62131 -6.5277,-11.260315 -18.4408,-17.624842 -11.9131,-6.364527 -28.0692,-6.364527 h -36.2288 z"
         style="font-weight:300;font-size:163.193px;font-family:Montserrat;-inkscape-font-specification:'Montserrat Light';text-align:justify;letter-spacing:0px;fill:#ffffff;stroke-width:0.339985;stroke-linecap:square"
         id="path337" /><path
         d="m 1788.9031,183.54978 q -12.8922,0 -22.847,-5.54856 -9.7916,-5.54856 -15.5033,-15.34014 -5.5486,-9.79158 -5.5486,-22.35744 0,-12.72905 5.2222,-22.35744 5.3854,-9.79158 14.6874,-15.34014 9.302,-5.548566 20.8887,-5.548566 11.5867,0 20.7255,5.385366 9.302,5.38537 14.5241,15.17695 5.3854,9.62839 5.3854,22.35745 0,0.48957 -0.1632,1.14235 0,0.48958 0,1.14235 h -75.232 v -6.36453 h 70.8258 l -3.2639,3.10067 q 0.1632,-9.95478 -4.243,-17.78804 -4.243,-7.99646 -11.5867,-12.40267 -7.3437,-4.5694 -16.972,-4.5694 -9.4652,0 -16.9721,4.5694 -7.3437,4.40621 -11.5867,12.40267 -4.243,7.83326 -4.243,17.95123 v 1.46874 q 0,10.44435 4.5694,18.604 4.7326,7.99646 12.8922,12.56586 8.1597,4.40621 18.604,4.40621 8.1597,0 15.177,-2.93747 7.1805,-2.93748 12.0762,-8.97562 l 4.7326,5.38537 q -5.5485,6.85411 -14.0346,10.44435 -8.3228,3.42705 -18.1144,3.42705 z"
         style="font-weight:300;font-size:163.193px;font-family:Montserrat;-inkscape-font-specification:'Montserrat Light';text-align:justify;letter-spacing:0px;fill:#ffffff;stroke-width:0.339985;stroke-linecap:square"
         id="path339" /><path
         d="m 1871.2736,183.54978 q -10.6076,0 -19.9096,-3.10066 -9.1388,-3.10067 -14.1978,-7.83327 l 3.7535,-6.52772 q 4.8958,4.24302 13.0554,7.34369 8.1597,2.93747 17.6249,2.93747 13.3818,0 19.2567,-4.40621 5.875,-4.40621 5.875,-11.5867 0,-5.22218 -3.1007,-8.15965 -2.9374,-3.10067 -7.9964,-4.7326 -5.059,-1.63193 -11.0972,-2.61108 -6.0381,-1.14236 -12.0762,-2.4479 -6.0382,-1.30554 -11.0972,-3.75344 -5.0589,-2.44789 -8.1596,-6.69091 -2.9375,-4.40621 -2.9375,-11.58671 0,-6.52772 3.5903,-11.74989 3.5902,-5.22218 10.7707,-8.32285 7.1805,-3.263856 17.9512,-3.263856 7.9965,0 15.9929,2.284702 8.1597,2.284704 13.2187,6.038144 l -3.7535,6.52772 q -5.3853,-4.07983 -12.0762,-5.87495 -6.691,-1.79512 -13.5451,-1.79512 -12.4026,0 -18.2776,4.5694 -5.7117,4.5694 -5.7117,11.42351 0,5.38537 2.9374,8.64923 3.1007,3.10067 8.1597,4.89579 5.059,1.63193 11.0971,2.77428 6.0382,0.97916 12.0763,2.2847 6.0381,1.30555 11.0971,3.75344 5.059,2.28471 7.9965,6.52772 3.1006,4.07983 3.1006,11.09713 0,7.0173 -3.9166,12.23947 -3.7534,5.22218 -11.2603,8.15965 -7.5069,2.93747 -18.4408,2.93747 z"
         style="font-weight:300;font-size:163.193px;font-family:Montserrat;-inkscape-font-specification:'Montserrat Light';text-align:justify;letter-spacing:0px;fill:#ffffff;stroke-width:0.339985;stroke-linecap:square"
         id="path341" /><path
         d="M 1925.7382,182.89701 V 97.710266 h 8.1596 v 85.186744 z m 4.0798,-105.912254 q -2.7743,0 -4.7326,-1.958316 -1.9583,-1.958316 -1.9583,-4.569404 0,-2.77428 1.9583,-4.732596 1.9583,-1.958316 4.7326,-1.958316 2.9375,0 4.7326,1.958316 1.9583,1.795123 1.9583,4.569403 0,2.774281 -1.9583,4.732597 -1.7951,1.958316 -4.7326,1.958316 z"
         style="font-weight:300;font-size:163.193px;font-family:Montserrat;-inkscape-font-specification:'Montserrat Light';text-align:justify;letter-spacing:0px;fill:#ffffff;stroke-width:0.339985;stroke-linecap:square"
         id="path343" /><path
         d="m 1997.7444,215.20923 q -11.5867,0 -22.0311,-3.59025 -10.4444,-3.59025 -16.9721,-9.95477 l 4.4062,-6.20134 q 6.3646,5.87495 15.177,9.13881 8.9756,3.26386 19.2568,3.26386 17.1352,0 25.1317,-7.99646 8.1596,-7.99645 8.1596,-25.13172 v -23.66298 l 1.632,-12.72905 -1.3056,-12.72906 V 97.710266 h 7.8333 v 76.047944 q 0,21.37828 -10.4444,31.33305 -10.2811,10.11797 -30.8434,10.11797 z m -2.2847,-35.41288 q -12.0763,0 -21.7047,-5.22218 -9.4652,-5.38537 -15.177,-14.68737 -5.5485,-9.46519 -5.5485,-21.54147 0,-12.23948 5.5485,-21.54148 5.7118,-9.302 15.177,-14.52418 9.6284,-5.222176 21.7047,-5.222176 11.5867,0 20.7255,5.058986 9.302,4.89579 14.6873,14.19779 5.3854,9.13881 5.3854,22.03106 0,12.72905 -5.3854,22.03105 -5.3853,9.302 -14.6873,14.36098 -9.1388,5.05899 -20.7255,5.05899 z m 0.6527,-7.34369 q 10.2812,0 18.1144,-4.24302 7.8333,-4.40621 12.2395,-12.07628 4.5694,-7.83326 4.5694,-17.78803 0,-10.11797 -4.5694,-17.78804 -4.4062,-7.67007 -12.2395,-11.91309 -7.8332,-4.24302 -18.1144,-4.24302 -9.9547,0 -17.9512,4.24302 -7.8333,4.24302 -12.4027,11.91309 -4.4062,7.67007 -4.4062,17.78804 0,9.95477 4.4062,17.78803 4.5694,7.67007 12.4027,12.07628 7.9965,4.24302 17.9512,4.24302 z"
         style="font-weight:300;font-size:163.193px;font-family:Montserrat;-inkscape-font-specification:'Montserrat Light';text-align:justify;letter-spacing:0px;fill:#ffffff;stroke-width:0.339985;stroke-linecap:square"
         id="path345" /><path
         d="m 2099.2432,97.057494 q 10.4443,0 18.1144,4.079826 7.8333,3.91663 12.0763,12.07628 4.4062,7.99646 4.4062,19.90955 v 49.77386 h -8.1597 v -49.12109 q 0,-14.36099 -7.3436,-21.86786 -7.1805,-7.50688 -20.236,-7.50688 -9.9547,0 -17.2984,4.07982 -7.3437,4.07983 -11.2604,11.42351 -3.7534,7.34369 -3.7534,17.62485 v 45.36765 h -8.1596 V 97.710266 h 7.8332 v 23.662984 l -1.1423,-2.61109 q 3.9166,-10.11796 12.8922,-15.82972 8.9756,-5.874946 22.0311,-5.874946 z"
         style="font-weight:300;font-size:163.193px;font-family:Montserrat;-inkscape-font-specification:'Montserrat Light';text-align:justify;letter-spacing:0px;fill:#ffffff;stroke-width:0.339985;stroke-linecap:square"
         id="path347" /></g><g
       id="g541"
       transform="matrix(4.8353588,0,0,4.8353588,-400.32355,-1152.9207)"
       style="fill:#dc192b;fill-opacity:1"><path
         id="path361"
         style="font-weight:800;font-size:163.193px;font-family:Montserrat;-inkscape-font-specification:'Montserrat Ultra-Bold';text-align:justify;letter-spacing:0px;fill:#dc192b;fill-opacity:1;stroke-width:0.339985;stroke-linecap:square"
         d="m 199.44336,283.58008 v 25.78515 h 19.17578 c 6.5277,0 12.18567,1.25163 16.97266,3.75391 4.89578,2.3935 8.70396,5.92924 11.42382,10.60742 2.71989,4.6782 4.07813,10.33616 4.07813,16.97266 0,6.5277 -1.35824,12.18372 -4.07813,16.9707 -2.71986,4.6782 -6.52804,8.2692 -11.42382,10.77149 -4.78699,2.39348 -10.44496,3.58984 -16.97266,3.58984 h -20.39844 -3.0664 l 0.0176,-0.11719 c -2.50769,6.42597 -6.12508,12.03099 -10.95313,16.74805 -3.88027,3.79106 -8.29641,6.8336 -13.23437,9.1543 h 48.93945 c 12.62023,0 23.71899,-2.3394 33.29297,-7.01758 9.57396,-4.6782 17.02645,-11.26007 22.35742,-19.7461 5.43975,-8.59481 8.1582,-18.71243 8.1582,-30.35351 0,-11.74987 -2.71845,-21.86945 -8.1582,-30.35547 -5.33097,-8.48601 -12.78346,-15.06791 -22.35742,-19.74609 -9.57398,-4.6782 -20.67274,-7.01758 -33.29297,-7.01758 z" /><path
         d="m 142.34967,400.10059 q -25.29491,0 -39.4927,-13.87141 -14.19779,-13.8714 -14.19779,-39.32951 v -63.31888 h 32.31221 v 62.33973 q 0,14.68737 5.71176,21.05189 5.87495,6.36453 15.99291,6.36453 10.11797,0 15.82972,-6.36453 5.71176,-6.36452 5.71176,-21.05189 v -62.33973 h 31.82263 v 63.31888 q 0,25.45811 -14.19779,39.32951 -14.19779,13.87141 -39.49271,13.87141 z"
         style="font-weight:800;font-size:163.193px;font-family:Montserrat;-inkscape-font-specification:'Montserrat Ultra-Bold';text-align:justify;letter-spacing:0px;fill:#dc192b;fill-opacity:1;stroke-width:0.339985;stroke-linecap:square"
         id="path359" /></g></g></svg>
